<svg xmlns="http://www.w3.org/2000/svg" width="107" height="24" fill="none"><g fill="#fff" fill-opacity=".8" clip-path="url(#a)"><path fill-rule="evenodd" d="M9.758 16.8a3 3 0 0 1-3-3V0h-6v13.8a9 9 0 0 0 9 9h6.6v-6h-6.6Zm18-10.8a5.4 5.4 0 1 0 0 10.8 5.4 5.4 0 0 0 0-10.8Zm-11.4 5.4c0-6.296 5.104-11.4 11.4-11.4s11.4 5.104 11.4 11.4-5.104 11.4-11.4 11.4-11.4-5.104-11.4-11.4Zm76.2-5.4a5.4 5.4 0 1 0 0 10.8 5.4 5.4 0 0 0 0-10.8Zm-11.4 5.4c0-6.296 5.105-11.4 11.4-11.4 6.296 0 11.4 5.104 11.4 11.4s-5.104 11.4-11.4 11.4-11.4-5.104-11.4-11.4ZM51.758 0c-6.296 0-11.4 5.104-11.4 11.4s5.105 11.4 11.4 11.4h16.8c1.182 0 2.321-.18 3.393-.514L75.158 24l3.461-6.482a11.405 11.405 0 0 0 1.34-5.361V11.4c0-6.296-5.105-11.4-11.4-11.4h-16.8Zm22.2 11.4a5.4 5.4 0 0 0-5.4-5.4h-16.8a5.4 5.4 0 0 0 0 10.8h16.8a5.4 5.4 0 0 0 5.4-5.358V11.4Z" clip-rule="evenodd"/><path d="M106.359 1.5a1.501 1.501 0 1 1-3.002 0 1.501 1.501 0 0 1 3.002 0Z"/></g><defs><clipPath id="a"><path fill="#fff" d="M.758 0h105.6v24H.758z"/></clipPath></defs></svg>