<svg xmlns="http://www.w3.org/2000/svg" width="64" height="24" fill="none"><path fill="#fff" fill-opacity=".8" d="M13.471 12.17c0-.876.523-1.486 1.323-1.486.8 0 1.322.61 1.322 1.486 0 .867-.523 1.487-1.322 1.487-.8 0-1.323-.62-1.323-1.487Zm6.761-1.525c-.76 0-1.273.59-1.273 1.398 0 .817.523 1.427 1.273 1.427.829 0 1.381-.62 1.381-1.428 0-.797-.552-1.397-1.381-1.397Zm4.406 1.525c0-.876.523-1.486 1.322-1.486.8 0 1.323.61 1.323 1.486 0 .867-.523 1.487-1.323 1.487-.8 0-1.322-.62-1.322-1.487Zm8.042.01c0-.876.534-1.486 1.373-1.486s1.342.62 1.342 1.486c0 .867-.504 1.477-1.343 1.477-.838 0-1.371-.6-1.371-1.477Z"/><path fill="#fff" fill-opacity=".8" fill-rule="evenodd" d="M32.178 22.47c16.77 0 30.365-4.758 30.365-10.628S48.948 1.215 32.178 1.215c-16.77 0-30.364 4.758-30.364 10.627 0 5.87 13.595 10.628 30.364 10.628ZM11.52 14.612V7.287h-1.204v7.325h1.204Zm.737-2.442c0 1.497 1.007 2.56 2.537 2.56s2.536-1.063 2.536-2.56c0-1.496-1.007-2.56-2.536-2.56-1.53 0-2.537 1.064-2.537 2.56Zm7.768 2.343c-1.372 0-2.29-1.023-2.29-2.441 0-1.427.938-2.48 2.33-2.48.72 0 1.332.304 1.628.816l.069-.66h1.066v4.618c0 1.604-1.007 2.638-2.586 2.638-1.342 0-2.32-.827-2.477-2.097h1.214c.069.64.582 1.004 1.332 1.004.839 0 1.342-.531 1.342-1.329v-.827c-.306.473-.918.758-1.628.758Zm3.399-2.343c0 1.497 1.006 2.56 2.536 2.56s2.537-1.063 2.537-2.56c0-1.496-1.007-2.56-2.537-2.56s-2.536 1.064-2.536 2.56Zm7.096-4.134a.717.717 0 0 1-.72.718.703.703 0 0 1-.71-.718.7.7 0 0 1 .71-.71c.395 0 .72.316.72.71Zm-.118 1.713v4.863h-1.204V9.749h1.204Zm1.055 7.117h1.174v-2.924c.306.502.968.798 1.698.798 1.441 0 2.3-1.103 2.28-2.619-.03-1.526-.908-2.52-2.29-2.52-.74 0-1.411.325-1.707.886l-.07-.738h-1.085v7.117Zm7.412-2.126c-1.165 0-1.915-.62-1.954-1.585h1.095c0 .423.306.67.84.67.443 0 .808-.178.808-.562 0-.275-.197-.423-.513-.512l-.849-.216c-.937-.246-1.302-.768-1.302-1.398 0-.926.78-1.536 1.825-1.536 1.057 0 1.777.61 1.817 1.575H39.54c0-.423-.296-.68-.75-.68-.434 0-.7.237-.7.572 0 .315.246.443.611.541l.859.207c.8.197 1.233.67 1.233 1.368 0 .945-.78 1.556-1.924 1.556Zm4.422 0c.661 0 1.293-.305 1.58-.758l.078.63h1.125V9.749H44.87v2.55c0 .876-.335 1.368-1.125 1.368-.612 0-1.036-.296-1.036-1.3V9.75h-1.204v3.042c0 1.161.631 1.949 1.786 1.949Zm5.05-2.924v2.796h-1.204V9.749h1.105l.06.55c.286-.432.8-.698 1.371-.698.81 0 1.343.354 1.61.925.236-.57.819-.925 1.559-.925 1.184 0 1.806.709 1.806 1.831v3.18h-1.165v-2.904c0-.69-.375-1.054-.957-1.054-.573 0-1.026.374-1.026 1.172v2.786h-1.175v-2.904c0-.69-.375-1.054-.948-1.054-.572 0-1.036.374-1.036 1.162Z" clip-rule="evenodd"/></svg>