<svg xmlns="http://www.w3.org/2000/svg" width="98" height="24" fill="none"><g fill="#fff" fill-opacity=".8" clip-path="url(#a)"><path d="M29.576 16.773h6.83v-2.057h-4.403V6.968h-2.427v9.805Zm10.877-1.371c-.974 0-1.482-.85-1.482-2.126 0-1.275.508-2.14 1.482-2.14.973 0 1.494.865 1.494 2.14 0 1.276-.52 2.126-1.495 2.126Zm.013 1.59c2.263 0 3.744-1.604 3.744-3.716S42.73 9.56 40.466 9.56c-2.249 0-3.758 1.604-3.758 3.716s1.51 3.717 3.758 3.717Zm7.661 2.208c1.043 0 1.961-.232 2.579-.781.562-.508.932-1.276.932-2.332V9.751h-2.14v.755h-.027c-.411-.59-1.042-.96-1.975-.96-1.741 0-2.948 1.454-2.948 3.51 0 2.154 1.467 3.333 3.044 3.333.85 0 1.386-.343 1.797-.809h.055v.7c0 .85-.398 1.343-1.344 1.343-.74 0-1.111-.315-1.234-.685h-2.167c.22 1.467 1.495 2.263 3.428 2.263Zm-.013-4.47c-.837 0-1.386-.686-1.386-1.742 0-1.07.549-1.755 1.386-1.755.932 0 1.426.795 1.426 1.741 0 .988-.453 1.756-1.426 1.756Zm7.921.672c-.973 0-1.48-.85-1.48-2.126 0-1.275.507-2.14 1.48-2.14.974 0 1.495.865 1.495 2.14 0 1.276-.52 2.126-1.495 2.126Zm.014 1.59c2.263 0 3.744-1.604 3.744-3.716S58.313 9.56 56.05 9.56c-2.249 0-3.758 1.604-3.758 3.716s1.51 3.717 3.758 3.717Zm4.399-.219h2.235V9.752h-2.235v7.021Zm0-7.995h2.235v-1.81h-2.235v1.81Zm3.204 10.312h2.236v-3.044h.027c.44.59 1.084.947 1.989.947 1.838 0 3.058-1.454 3.058-3.73 0-2.113-1.138-3.717-3.003-3.717-.96 0-1.646.425-2.126 1.056h-.041v-.85h-2.14v9.339Zm3.676-3.825c-.96 0-1.509-.782-1.509-1.92 0-1.139.494-2.003 1.468-2.003.96 0 1.412.796 1.412 2.003 0 1.193-.52 1.92-1.371 1.92Zm7.273 1.728c1.838 0 3.196-.796 3.196-2.332 0-1.796-1.454-2.112-2.688-2.317-.892-.165-1.687-.234-1.687-.727 0-.44.425-.645.974-.645.617 0 1.042.192 1.124.823h2.057c-.11-1.385-1.179-2.25-3.168-2.25-1.659 0-3.03.769-3.03 2.25 0 1.646 1.302 1.975 2.523 2.18.933.165 1.783.234 1.783.864 0 .453-.425.7-1.097.7-.74 0-1.207-.343-1.29-1.042h-2.112c.07 1.55 1.358 2.496 3.415 2.496Zm6.232-.014c.974 0 1.591-.384 2.099-1.07h.04v.864h2.14V9.752h-2.235v3.922c0 .836-.466 1.412-1.234 1.412-.714 0-1.056-.425-1.056-1.193V9.752h-2.222v4.608c0 1.563.85 2.619 2.468 2.619Zm5.252-.206h2.235v-3.936c0-.836.412-1.426 1.111-1.426.672 0 .988.439.988 1.193v4.17h2.235v-3.937c0-.836.398-1.426 1.111-1.426.672 0 .987.439.987 1.193v4.17h2.236v-4.568c0-1.577-.796-2.66-2.386-2.66-.906 0-1.66.384-2.209 1.234h-.027c-.356-.754-1.056-1.234-1.975-1.234-1.015 0-1.687.48-2.126 1.207h-.04V9.75h-2.14v7.022Z"/><path fill-rule="evenodd" d="M12.333.55c6.435 0 11.652 5.217 11.652 11.652s-5.217 11.652-11.652 11.652S.68 18.637.68 12.202 5.898.55 12.333.55Zm11.205 11.652C23.538 6.014 18.52.997 12.333.997c-.5 0-.99.033-1.473.096.312-.027.627-.041.945-.041 5.913 0 10.707 4.793 10.707 10.707 0 5.913-4.794 10.706-10.707 10.706-5.598 0-10.193-4.296-10.667-9.772.258 5.96 5.171 10.714 11.195 10.714 6.188 0 11.205-5.017 11.205-11.205Zm-1.473-.443c0-5.667-4.594-10.26-10.26-10.26-.46 0-.913.03-1.357.089.273-.023.55-.035.83-.035 5.39 0 9.761 4.37 9.761 9.762 0 5.39-4.37 9.761-9.762 9.761-5.097 0-9.282-3.907-9.723-8.89.224 5.468 4.728 9.832 10.251 9.832 5.666 0 10.26-4.593 10.26-10.26ZM11.277 2a9.314 9.314 0 1 1-9.307 9.67 8.817 8.817 0 1 0 8.032-9.583A9.398 9.398 0 0 1 11.277 2Zm7.841 8.871a8.369 8.369 0 0 0-9.52-8.29 7.87 7.87 0 1 1-7.212 8.604 8.369 8.369 0 0 0 16.732-.314Zm-8.897-7.867a7.423 7.423 0 1 1-7.419 7.665 6.926 6.926 0 1 0 6.37-7.591 7.488 7.488 0 0 1 1.05-.074Zm5.95 6.98a6.478 6.478 0 0 0-7.438-6.407 5.98 5.98 0 1 1-5.515 6.58 6.478 6.478 0 0 0 12.954-.173ZM9.167 4.008a5.532 5.532 0 1 1-5.53 5.649 5.035 5.035 0 1 0 4.686-5.585 5.59 5.59 0 0 1 .844-.064Zm4.059 5.089A4.587 4.587 0 0 0 7.891 4.57a4.089 4.089 0 1 1-3.84 4.585 4.587 4.587 0 0 0 9.174-.058ZM8.11 5.012a3.641 3.641 0 1 1-3.641 3.627 3.144 3.144 0 1 0 2.996-3.57c.21-.038.425-.057.645-.057Zm2.168 3.197a2.696 2.696 0 1 0-5.391 0 2.696 2.696 0 0 0 5.39 0Z" clip-rule="evenodd"/></g><defs><clipPath id="a"><path fill="#fff" d="M.514 0h96.571v24H.515z"/></clipPath></defs></svg>