<svg xmlns="http://www.w3.org/2000/svg" width="91" height="24" fill="none"><path fill="#fff" fill-opacity=".8" d="M30.827 17.283a1.816 1.816 0 0 1-1.145-.329 1.07 1.07 0 0 1-.432-.898V9.699a.18.18 0 0 1 .199-.199H30.6c.13 0 .192.07.192.2v5.862c0 .26.116.391.356.391a.987.987 0 0 0 .302-.034c.137 0 .213.04.22.164l.102.858a.178.178 0 0 1-.164.212 2.58 2.58 0 0 1-.782.13Zm6.48-.733a3.23 3.23 0 0 1-4.114 0 2.743 2.743 0 0 1 0-3.861 3.243 3.243 0 0 1 4.114 0 2.784 2.784 0 0 1 0 3.854v.006Zm-3.03-.906a1.46 1.46 0 0 0 1.96 0 1.536 1.536 0 0 0 0-2.016 1.46 1.46 0 0 0-1.96 0 1.537 1.537 0 0 0 0 2.016Zm10.148-3.517c.13 0 .192.068.192.199v4.916a2.236 2.236 0 0 1-.761 1.762 2.88 2.88 0 0 1-1.996.686 3.209 3.209 0 0 1-1.858-.514 2.056 2.056 0 0 1-.898-1.372c0-.137 0-.198.185-.198h1.152a.253.253 0 0 1 .226.157.898.898 0 0 0 .419.487c.237.122.5.184.767.178a1.212 1.212 0 0 0 .885-.315 1.166 1.166 0 0 0 .322-.857v-.432c-.412.303-.914.46-1.426.446a2.662 2.662 0 0 1-1.947-.748 2.743 2.743 0 0 1 0-3.812 2.681 2.681 0 0 1 1.947-.741 2.304 2.304 0 0 1 1.46.473v-.11a.178.178 0 0 1 .193-.198l1.138-.007Zm-2.66 3.922a1.205 1.205 0 0 0 .939-.405 1.68 1.68 0 0 0 0-2.057 1.2 1.2 0 0 0-.933-.397 1.232 1.232 0 0 0-.953.404c-.252.282-.385.65-.37 1.029-.013.374.117.739.363 1.021a1.241 1.241 0 0 0 .953.405Zm8.77.501a3.243 3.243 0 0 1-4.114 0 2.79 2.79 0 0 1 0-3.861 3.25 3.25 0 0 1 4.114 0 2.784 2.784 0 0 1 0 3.854v.006Zm-3.038-.906a1.371 1.371 0 0 0 .988.377 1.373 1.373 0 0 0 .98-.377 1.556 1.556 0 0 0 0-2.016 1.373 1.373 0 0 0-.98-.377 1.372 1.372 0 0 0-.988.377 1.557 1.557 0 0 0 0 2.016Zm6.287-4.684a.994.994 0 0 1-1.31 0 .831.831 0 0 1 0-1.206 1.015 1.015 0 0 1 1.31 0 .829.829 0 0 1 0 1.207Zm.144 6.323c-.408.02-.81-.096-1.145-.329a1.082 1.082 0 0 1-.425-.898v-3.73a.178.178 0 0 1 .198-.2h1.152c.13 0 .192.07.192.2v3.236c0 .26.117.39.35.39a1.06 1.06 0 0 0 .309-.033c.137 0 .212.04.22.164l.102.857a.18.18 0 0 1-.092.193.179.179 0 0 1-.073.02c-.254.084-.52.128-.788.13Zm5.192-5.321a2.688 2.688 0 0 1 1.962.74 2.81 2.81 0 0 1 0 3.834 2.664 2.664 0 0 1-1.961.747 2.358 2.358 0 0 1-1.433-.446v2.476c0 .13-.069.192-.2.192h-1.151a.165.165 0 0 1-.192-.192V13.69a.356.356 0 0 0-.405-.404h-.226c-.15 0-.226-.055-.226-.165v-.81a.22.22 0 0 1 .157-.226c.238-.086.489-.128.74-.123a1.268 1.268 0 0 1 1.242.686 2.313 2.313 0 0 1 1.694-.686Zm-1.069 3.682a1.31 1.31 0 0 0 1.893 0c.257-.287.392-.663.377-1.049a1.46 1.46 0 0 0-.377-1.049 1.31 1.31 0 0 0-1.893 0c-.25.291-.38.666-.363 1.05-.014.382.115.756.363 1.048Zm7.019 1.639a3.304 3.304 0 0 1-1.761-.425 1.673 1.673 0 0 1-.796-1.214c0-.137.048-.205.199-.205h1.008a.26.26 0 0 1 .226.15c.144.37.522.556 1.125.556.21.01.42-.033.61-.123a.398.398 0 0 0 .233-.336c0-.179-.11-.302-.329-.384a3.704 3.704 0 0 0-.802-.172 7.62 7.62 0 0 1-.96-.171 1.577 1.577 0 0 1-.802-.46 1.469 1.469 0 0 1 .294-2.125 2.824 2.824 0 0 1 1.66-.44 3.031 3.031 0 0 1 1.618.405 1.53 1.53 0 0 1 .754 1.077c0 .137-.061.206-.185.206h-1.015a.213.213 0 0 1-.205-.124.686.686 0 0 0-.357-.363 1.207 1.207 0 0 0-.59-.137c-.2-.011-.401.029-.582.116a.343.343 0 0 0-.22.316.439.439 0 0 0 .33.404c.263.1.536.168.815.206.321.042.64.102.954.178.307.07.586.23.802.46a1.296 1.296 0 0 1 .336.939 1.372 1.372 0 0 1-.638 1.193 2.996 2.996 0 0 1-1.721.473Zm9.608-.343a.188.188 0 0 1-.034.14.18.18 0 0 1-.123.073c-.25.082-.512.126-.775.13a1.521 1.521 0 0 1-1.372-.596 2.48 2.48 0 0 1-1.748.596 2.127 2.127 0 0 1-1.605-.624 2.252 2.252 0 0 1-.61-1.652v-2.681c0-.13.062-.2.192-.2h1.152c.13 0 .192.07.192.2V14.8c-.013.308.092.61.295.843a1.03 1.03 0 0 0 .788.323 1.138 1.138 0 0 0 .823-.302 1.095 1.095 0 0 0 .309-.816v-2.523c0-.13.061-.2.192-.2h1.165c.13 0 .192.07.192.2v3.23c0 .267.117.397.343.397.107.004.213-.007.316-.034a.177.177 0 0 1 .205.087c.013.024.02.05.021.077l.082.857Zm10.896 0c.007.025.007.05.002.075a.168.168 0 0 1-.088.117.166.166 0 0 1-.071.02 2.61 2.61 0 0 1-.789.131 1.83 1.83 0 0 1-1.145-.329 1.069 1.069 0 0 1-.46-.898v-1.612a1.214 1.214 0 0 0-.287-.843.977.977 0 0 0-.769-.322.862.862 0 0 0-.685.301 1.22 1.22 0 0 0-.26.81v2.53c0 .13-.063.199-.193.199H79.67a.176.176 0 0 1-.148-.051.18.18 0 0 1-.05-.148v-2.476a1.27 1.27 0 0 0-.268-.843.892.892 0 0 0-.686-.322.996.996 0 0 0-.754.301 1.133 1.133 0 0 0-.281.81v2.53a.175.175 0 0 1-.05.148.179.179 0 0 1-.149.05h-1.118c-.13 0-.192-.068-.192-.198v-3.23a.35.35 0 0 0-.1-.304.355.355 0 0 0-.304-.1h-.226c-.151 0-.227-.055-.227-.165v-.81a.22.22 0 0 1 .158-.226c.237-.086.488-.128.74-.123a1.29 1.29 0 0 1 1.221.63 2.317 2.317 0 0 1 1.742-.63 1.968 1.968 0 0 1 1.625.727 2.267 2.267 0 0 1 1.797-.727 2.167 2.167 0 0 1 1.625.624 2.234 2.234 0 0 1 .61 1.653v1.323c0 .26.116.39.336.39.106.006.212-.006.315-.033.142 0 .218.054.227.164l.061.857ZM5.168 11.235a9.387 9.387 0 0 1 18.22 0h-.824a6.645 6.645 0 0 0-3.888 1.187 1.948 1.948 0 0 1-.205.13h-.096a1.948 1.948 0 0 1-.206-.13 6.973 6.973 0 0 0-7.783 0 1.948 1.948 0 0 1-.206.13h-.096a1.961 1.961 0 0 1-.205-.13 6.645 6.645 0 0 0-3.888-1.187h-.823Zm15.915 4.3a2.311 2.311 0 0 1 1.481-.487h1.104v-2.201h-1.104a4.376 4.376 0 0 0-2.626.836 2.496 2.496 0 0 1-2.962 0 4.663 4.663 0 0 0-5.328 0 2.496 2.496 0 0 1-2.962 0 4.375 4.375 0 0 0-2.661-.836H4.887v2.2H5.99a2.311 2.311 0 0 1 1.48.488 4.649 4.649 0 0 0 5.322 0c.423-.328.946-.5 1.481-.487a2.297 2.297 0 0 1 1.481.487 4.662 4.662 0 0 0 5.328 0Zm0 3.936a2.311 2.311 0 0 1 1.481-.487h1.104v-2.201h-1.104a4.376 4.376 0 0 0-2.626.836 2.496 2.496 0 0 1-2.962 0 4.663 4.663 0 0 0-5.328 0 2.496 2.496 0 0 1-2.962 0 4.376 4.376 0 0 0-2.661-.836H4.887v2.2H5.99a2.311 2.311 0 0 1 1.48.488 4.649 4.649 0 0 0 5.322 0c.423-.328.946-.5 1.481-.487a2.297 2.297 0 0 1 1.481.487 4.662 4.662 0 0 0 5.328 0Z"/></svg>