<svg xmlns="http://www.w3.org/2000/svg" width="94" height="20" fill="none"><path fill="#fff" fill-opacity=".8" d="M15.303 8.914a2.438 2.438 0 0 0-.698 1.953l-.011-.012a2.896 2.896 0 0 1-3.13 3.13l.012.011a2.453 2.453 0 1 0 2.214 2.212l.013.012a2.894 2.894 0 0 1 3.13-3.13l-.013-.011a2.447 2.447 0 1 0-1.515-4.165h-.002Z"/><path fill="#fff" fill-opacity=".8" d="m10.385 12.424-.013-.012a2.42 2.42 0 0 0 2.652-2.65l.012.013a2.896 2.896 0 0 1 3.13-3.13l-.013-.012a2.451 2.451 0 1 0-2.212-2.212l-.012-.012a2.896 2.896 0 0 1-3.13 3.129l.013.013A2.42 2.42 0 0 0 8.16 10.2l-.012-.012a2.898 2.898 0 0 1-3.13 3.13l.013.011a2.452 2.452 0 1 0 2.212 2.212l.013.012a2.896 2.896 0 0 1 3.129-3.129Z"/><path fill="#fff" fill-opacity=".8" d="M5.918 11.086a2.434 2.434 0 0 0 .697-1.953l.013.012a2.896 2.896 0 0 1 3.13-3.129l-.012-.012a2.451 2.451 0 1 0-2.212-2.212l-.012-.012a2.896 2.896 0 0 1-3.13 3.13l.012.011a2.447 2.447 0 1 0 1.516 4.165h-.002Zm20.65-6.649h1.98v9.635h-1.98V4.437Zm3.101 6.336a3.498 3.498 0 1 1 3.498 3.484 3.459 3.459 0 0 1-3.498-3.484Zm5.016 0a1.519 1.519 0 1 0-1.518 1.56 1.48 1.48 0 0 0 1.518-1.56Zm9.873-3.3v6.266c0 2.218-1.73 3.155-3.485 3.155a3.375 3.375 0 0 1-3.128-1.6l1.69-.977a1.509 1.509 0 0 0 1.504.832 1.315 1.315 0 0 0 1.492-1.412v-.604a2.344 2.344 0 0 1-1.928.858 3.354 3.354 0 0 1 0-6.704 2.345 2.345 0 0 1 1.928.858V7.47l1.927.002Zm-1.927 3.167a1.6 1.6 0 1 0-1.596 1.533 1.494 1.494 0 0 0 1.596-1.533Zm3.049.133a3.498 3.498 0 1 1 3.498 3.484 3.459 3.459 0 0 1-3.498-3.484Zm5.016 0a1.52 1.52 0 1 0-1.518 1.56 1.48 1.48 0 0 0 1.518-1.56Zm2.903-5.069a1.188 1.188 0 1 1 1.188 1.188 1.2 1.2 0 0 1-1.188-1.188Zm.2 1.769h1.98v6.6h-1.983l.003-6.6Zm10.531 3.3a3.315 3.315 0 0 1-3.155 3.484 2.477 2.477 0 0 1-1.966-.806v3.261h-1.98v-9.24h1.98v.62a2.477 2.477 0 0 1 1.965-.804 3.314 3.314 0 0 1 3.155 3.485Zm-1.98 0a1.571 1.571 0 1 0-1.57 1.61 1.508 1.508 0 0 0 1.57-1.61Zm8.088 1.319c0 1.518-1.32 2.165-2.745 2.165a2.89 2.89 0 0 1-2.837-1.57l1.715-.978a1.085 1.085 0 0 0 1.12.78c.474 0 .712-.146.712-.41 0-.726-3.247-.343-3.247-2.626 0-1.44 1.215-2.165 2.587-2.165A2.885 2.885 0 0 1 70.317 8.7l-1.69.91a.957.957 0 0 0-.883-.58c-.344 0-.555.133-.555.37.003.752 3.25.25 3.25 2.692Zm7.233-4.619v6.6h-1.98v-.62a2.257 2.257 0 0 1-1.886.804c-1.334 0-2.467-.95-2.467-2.733V7.473h1.98v3.761a1.081 1.081 0 0 0 .296.866 1.088 1.088 0 0 0 .852.334c.726 0 1.227-.422 1.227-1.36v-3.6l1.978-.001Zm11.353 2.547v4.052h-1.98v-3.88c0-.66-.316-1.083-.95-1.083-.66 0-1.03.462-1.03 1.241v3.722h-1.979v-3.88c0-.66-.317-1.083-.95-1.083-.66 0-1.03.462-1.03 1.241v3.722h-1.98v-6.6h1.98v.607a2.028 2.028 0 0 1 1.769-.792 1.965 1.965 0 0 1 1.728.871 2.175 2.175 0 0 1 1.914-.87c1.516 0 2.508 1.082 2.508 2.732Zm1.675-2.588a1.47 1.47 0 1 0 0-2.939 1.47 1.47 0 0 0 0 2.94Z"/></svg>